<mxfile host="app.diagrams.net" modified="2025-07-16" agent="APILinker Assistant" version="22.0.8">
  <diagram id="err-05" name="Error Flow">
    <mxGraphModel dx="1200" dy="800" grid="1" gridSize="10" guides="1" tooltips="1" connect="1" arrows="1" page="1" pageScale="1" pageWidth="1600" pageHeight="1000">
      <root>
        <mxCell id="0"/>
        <mxCell id="1" parent="0"/>
        
        <mxCell id="exec" value="Operation execution" style="rounded=1;whiteSpace=wrap;html=1;fillColor=#dae8fc;strokeColor=#6c8ebf" vertex="1" parent="1">
          <mxGeometry x="140" y="160" width="180" height="60" as="geometry"/>
        </mxCell>
        <mxCell id="det" value="Error detection" style="rounded=1;whiteSpace=wrap;html=1;fillColor=#fff2cc;strokeColor=#d6b656" vertex="1" parent="1">
          <mxGeometry x="380" y="160" width="160" height="60" as="geometry"/>
        </mxCell>
        <mxCell id="cat" value="Classification (HTTP, timeout, rate-limit, validation)" style="rounded=1;whiteSpace=wrap;html=1;fillColor=#f8cecc;strokeColor=#b85450" vertex="1" parent="1">
          <mxGeometry x="580" y="140" width="320" height="80" as="geometry"/>
        </mxCell>
        <mxCell id="retry" value="Retry & backoff" style="rounded=1;whiteSpace=wrap;html=1;fillColor=#d5e8d4;strokeColor=#82b366" vertex="1" parent="1">
          <mxGeometry x="940" y="120" width="160" height="60" as="geometry"/>
        </mxCell>
        <mxCell id="cb" value="Circuit breaker (open/half-open/closed)" style="rounded=1;whiteSpace=wrap;html=1;fillColor=#e1d5e7;strokeColor=#9673a6" vertex="1" parent="1">
          <mxGeometry x="940" y="200" width="220" height="60" as="geometry"/>
        </mxCell>
        <mxCell id="dlq" value="Dead Letter Queue (capture for audit/replay)" style="rounded=1;whiteSpace=wrap;html=1;fillColor=#cce5ff;strokeColor=#4d79ff" vertex="1" parent="1">
          <mxGeometry x="940" y="280" width="260" height="60" as="geometry"/>
        </mxCell>
        <mxCell id="done" value="Result processing / return" style="rounded=1;whiteSpace=wrap;html=1;fillColor=#f5f5f5;strokeColor=#666666" vertex="1" parent="1">
          <mxGeometry x="1240" y="200" width="200" height="60" as="geometry"/>
        </mxCell>
        
        <mxCell id="e1" source="exec" target="det" style="edgeStyle=orthogonalEdgeStyle;endArrow=block;endFill=1" edge="1" parent="1"><mxGeometry relative="1" as="geometry"/></mxCell>
        <mxCell id="e2" source="det" target="cat" style="edgeStyle=orthogonalEdgeStyle;endArrow=block;endFill=1" edge="1" parent="1"><mxGeometry relative="1" as="geometry"/></mxCell>
        <mxCell id="e3" source="cat" target="retry" style="edgeStyle=orthogonalEdgeStyle;endArrow=block;endFill=1" edge="1" parent="1"><mxGeometry relative="1" as="geometry"/></mxCell>
        <mxCell id="e4" source="retry" target="cb" style="edgeStyle=orthogonalEdgeStyle;dashed=1;endArrow=open;endFill=0" edge="1" parent="1"><mxGeometry relative="1" as="geometry"/></mxCell>
        <mxCell id="e5" source="cat" target="dlq" style="edgeStyle=orthogonalEdgeStyle;endArrow=block;endFill=1" edge="1" parent="1"><mxGeometry relative="1" as="geometry"/></mxCell>
        <mxCell id="e6" source="cb" target="done" style="edgeStyle=orthogonalEdgeStyle;endArrow=block;endFill=1" edge="1" parent="1"><mxGeometry relative="1" as="geometry"/></mxCell>
        <mxCell id="e7" source="dlq" target="done" style="edgeStyle=orthogonalEdgeStyle;dashed=1;endArrow=open;endFill=0" edge="1" parent="1"><mxGeometry relative="1" as="geometry"/></mxCell>
      </root>
    </mxGraphModel>
  </diagram>
</mxfile>


